HIERARCHY
ROOT Pelvis
{
	OFFSET 0.000000 0.941512 0.000000
	CHANNELS 6 Xposition Yposition Zposition Zrotation Yrotation Xrotation 
	JOINT Pelvis_L_Hip
	{
		OFFSET 0.000000 0.000000 0.000000
		CHANNELS 3 Zrotation Yrotation Xrotation
		JOINT L_Hip
		{
			OFFSET 0.062321 -0.080322 -0.016990
			CHANNELS 3 Zrotation Yrotation Xrotation
			JOINT L_Knee
			{
				OFFSET 0.093051 -0.381305 -0.029784
				CHANNELS 3 Zrotation Yrotation Xrotation
				JOINT L_Ankle
				{
					OFFSET -0.010371 -0.431000 -0.033614
					CHANNELS 3 Zrotation Yrotation Xrotation
					End Site #name: L_Foot
					{
						OFFSET 0.069299 -0.038670 0.119418
					}
				}
			}
		}
	}
	JOINT Pelvis_R_Hip
	{
		OFFSET 0.000000 0.000000 0.000000
		CHANNELS 3 Zrotation Yrotation Xrotation
		JOINT R_Hip
		{
			OFFSET -0.055334 -0.094904 -0.002373
			CHANNELS 3 Zrotation Yrotation Xrotation
			JOINT R_Knee
			{
				OFFSET -0.064207 -0.384370 -0.019592
				CHANNELS 3 Zrotation Yrotation Xrotation
				JOINT R_Ankle
				{
					OFFSET 0.025418 -0.419734 -0.065953
					CHANNELS 3 Zrotation Yrotation Xrotation
					End Site #name: R_Foot
					{
						OFFSET -0.057233 -0.039888 0.132134
					}
				}
			}
		}
	}
	JOINT Pelvis_Spine1
	{
		OFFSET 0.000000 0.000000 0.000000
		CHANNELS 3 Zrotation Yrotation Xrotation
		JOINT Spine1
		{
			OFFSET -0.005562 0.124093 -0.043360
			CHANNELS 3 Zrotation Yrotation Xrotation
			JOINT Spine2
			{
				OFFSET 0.012244 0.139499 0.029894
				CHANNELS 3 Zrotation Yrotation Xrotation
				JOINT Spine3
				{
					OFFSET -0.002556 0.056561 0.009225
					CHANNELS 3 Zrotation Yrotation Xrotation
					JOINT Spine3_Neck
					{
						OFFSET 0.000000 0.000000 0.000000
						CHANNELS 3 Zrotation Yrotation Xrotation
						JOINT Neck
						{
							OFFSET -0.005205 0.217920 -0.024551
							CHANNELS 3 Zrotation Yrotation Xrotation
							End Site #name: Head
							{
								OFFSET 0.002365 0.091850 0.046637
							}
						}
					}
					JOINT Spine3_L_Collar
					{
						OFFSET 0.000000 0.000000 0.000000
						CHANNELS 3 Zrotation Yrotation Xrotation
						JOINT L_Collar
						{
							OFFSET 0.072225 0.116603 -0.009480
							CHANNELS 3 Zrotation Yrotation Xrotation
							JOINT L_Shoulder
							{
								OFFSET 0.115937 -0.058643 -0.021018
								CHANNELS 3 Zrotation Yrotation Xrotation
								JOINT L_Elbow
								{
									OFFSET 0.021994 -0.254722 -0.024492
									CHANNELS 3 Zrotation Yrotation Xrotation
									End Site #name: L_Wrist
									{
										OFFSET 0.048810 -0.240214 0.103329
									}
								}
							}
						}
					}
					JOINT Spine3_R_Collar
					{
						OFFSET 0.000000 0.000000 0.000000
						CHANNELS 3 Zrotation Yrotation Xrotation
						JOINT R_Collar
						{
							OFFSET -0.073372 0.120704 -0.024611
							CHANNELS 3 Zrotation Yrotation Xrotation
							JOINT R_Shoulder
							{
								OFFSET -0.108089 -0.054969 -0.020504
								CHANNELS 3 Zrotation Yrotation Xrotation
								JOINT R_Elbow
								{
									OFFSET -0.033684 -0.260739 0.009889
									CHANNELS 3 Zrotation Yrotation Xrotation
									End Site #name: R_Wrist
									{
										OFFSET -0.067980 -0.232763 0.118463
									}
								}
							}
						}
					}
				}
			}
		}
	}
}
MOTION
Frames: 14
Frame Time: 0.041667
0.000000 0.952693 0.000000 -1.258350 -3.098659 -3.898944 0.000000 0.000000 0.000000 -8.639029 -0.317248 -2.867906 5.475254 -1.626126 17.016451 0.965419 -15.503546 -8.693133 0.000000 0.000000 0.000000 4.306346 -1.856999 8.185579 -6.864756 0.924460 -1.208774 0.139587 10.933239 -5.821072 0.000000 0.000000 0.000000 4.204164 -0.073140 -6.563871 -6.328322 5.512493 37.081097 2.830644 1.592691 -31.245240 0.000000 0.000000 0.000000 3.151895 -2.694989 20.720555 0.000000 0.000000 0.000000 16.905973 -4.246563 -0.009792 -17.172546 2.177573 5.133100 7.890179 3.683030 2.873164 0.000000 0.000000 0.000000 -16.320273 4.681147 0.013376 19.770973 -1.878905 11.386795 -3.848736 -2.038346 0.433958 
0.002906 0.952993 0.000523 -1.467113 -3.458402 -3.158979 0.000000 0.000000 0.000000 -8.566644 -0.370718 -3.055063 5.420538 -1.541015 16.044700 0.886707 -15.353206 -8.541084 0.000000 0.000000 0.000000 4.332686 -1.738590 7.559286 -6.893899 0.871584 -1.661849 0.421946 11.182874 -5.375149 0.000000 0.000000 0.000000 4.478529 -0.156528 -6.283191 -6.438716 5.577907 36.837391 2.906806 1.692369 -31.189282 0.000000 0.000000 0.000000 2.678751 -2.327325 20.329061 0.000000 0.000000 0.000000 17.133935 -4.301868 -0.028353 -17.249038 2.165740 5.045887 8.026001 3.731531 2.841241 0.000000 0.000000 0.000000 -16.574468 5.096558 -0.221242 20.075413 -1.764372 11.011607 -3.781448 -1.977267 0.322283 
0.006446 0.953423 0.000907 -1.744504 -4.000875 -2.052179 0.000000 0.000000 0.000000 -8.538125 -0.397112 -3.182095 5.514306 -1.434662 14.279953 0.766643 -15.173816 -8.326175 0.000000 0.000000 0.000000 4.371503 -1.512158 6.377863 -6.869790 0.838478 -1.883276 0.679804 11.472640 -4.993324 0.000000 0.000000 0.000000 4.608072 -0.220119 -6.029233 -6.352477 5.569771 36.656724 2.948977 1.694694 -31.307483 0.000000 0.000000 0.000000 2.074114 -1.851507 19.855373 0.000000 0.000000 0.000000 17.369665 -4.344551 -0.059519 -17.194368 2.143622 4.978247 8.179130 3.795014 2.879302 0.000000 0.000000 0.000000 -16.631646 5.415915 -0.404964 20.248501 -1.569787 10.419655 -3.540002 -1.738955 -0.143646 
0.009257 0.953582 0.001059 -1.981212 -4.406042 -1.046931 0.000000 0.000000 0.000000 -8.487438 -0.379516 -3.165839 5.600983 -1.320108 12.377646 0.551808 -15.105838 -7.991155 0.000000 0.000000 0.000000 4.410582 -1.264489 5.091719 -6.805657 0.857069 -1.641588 0.750656 11.585753 -4.893584 0.000000 0.000000 0.000000 4.581135 -0.232612 -5.977963 -6.068993 5.450525 36.531773 2.848648 1.429572 -31.392784 0.000000 0.000000 0.000000 1.633826 -1.497957 19.667395 0.000000 0.000000 0.000000 17.603122 -4.615621 -0.271118 -17.076255 2.126242 4.945975 8.359835 3.899085 3.173741 0.000000 0.000000 0.000000 -16.542499 5.389443 -0.356078 20.357128 -1.360198 9.789798 -3.183514 -1.323193 -1.050068 
0.011753 0.953630 0.001685 -2.143911 -4.604296 -0.338794 0.000000 0.000000 0.000000 -8.422556 -0.305818 -2.959628 5.571782 -1.199878 10.675953 0.231917 -15.163939 -7.520512 0.000000 0.000000 0.000000 4.392075 -1.075059 4.132550 -6.747229 0.894374 -1.258959 0.721054 11.559039 -4.927795 0.000000 0.000000 0.000000 4.519327 -0.222025 -6.038612 -5.712581 5.280370 36.490393 2.607680 0.985399 -31.464180 0.000000 0.000000 0.000000 1.375647 -1.285734 19.863113 0.000000 0.000000 0.000000 17.761221 -5.091403 -0.644632 -16.852942 2.097916 4.909526 8.493549 3.992745 3.543596 0.000000 0.000000 0.000000 -16.503461 5.083533 -0.100180 20.476905 -1.223760 9.392598 -2.765661 -0.742508 -2.407628 
0.014182 0.953590 0.003265 -2.305455 -4.690322 0.123817 0.000000 0.000000 0.000000 -8.343475 -0.218028 -2.696040 5.506155 -1.105626 9.435756 -0.032402 -15.250561 -7.140672 0.000000 0.000000 0.000000 4.385671 -0.965375 3.572289 -6.717105 0.926240 -0.958449 0.667074 11.510885 -5.003040 0.000000 0.000000 0.000000 4.509344 -0.202753 -6.210979 -5.403628 5.125680 36.467858 2.367284 0.584411 -31.509866 0.000000 0.000000 0.000000 1.258526 -1.185601 20.278716 0.000000 0.000000 0.000000 17.846519 -5.491865 -0.962651 -16.670193 2.045304 4.756087 8.571407 4.029494 3.608440 0.000000 0.000000 0.000000 -16.576521 4.655670 0.252539 20.625319 -1.184616 9.292858 -2.502686 -0.208819 -3.828526 
0.016376 0.953296 0.005898 -2.479700 -4.788477 0.366212 0.000000 0.000000 0.000000 -8.291853 -0.136842 -2.446102 5.478567 -1.060788 8.834385 -0.045946 -15.267338 -7.132047 0.000000 0.000000 0.000000 4.418682 -0.932996 3.387492 -6.731375 0.948589 -0.790439 0.611934 11.545368 -5.118368 0.000000 0.000000 0.000000 4.495120 -0.174300 -6.438299 -5.189453 5.021554 36.453877 2.239775 0.369585 -31.536092 0.000000 0.000000 0.000000 1.242187 -1.162599 20.611182 0.000000 0.000000 0.000000 17.835051 -5.690591 -1.132480 -16.567517 1.961902 4.441204 8.595432 3.998391 3.258695 0.000000 0.000000 0.000000 -16.580025 4.355675 0.488471 20.625164 -1.182156 9.297181 -2.495828 -0.006267 -4.534266 
0.018356 0.952741 0.009402 -2.639684 -4.982301 0.391687 0.000000 0.000000 0.000000 -8.302923 -0.030705 -2.118811 5.497774 -1.053676 8.689806 0.131476 -15.180105 -7.391842 0.000000 0.000000 0.000000 4.439824 -0.956160 3.491919 -6.791154 0.975823 -0.637668 0.544766 11.710334 -5.311675 0.000000 0.000000 0.000000 4.502993 -0.142705 -6.708294 -5.064281 4.983094 36.502186 2.159905 0.297558 -31.556103 0.000000 0.000000 0.000000 1.299797 -1.194211 20.850850 0.000000 0.000000 0.000000 17.776021 -5.765755 -1.210108 -16.539987 1.872466 4.072101 8.549595 3.903945 2.592799 0.000000 0.000000 0.000000 -16.569144 4.341422 0.510499 20.493500 -1.180196 9.296930 -2.622014 -0.154995 -4.251434 
0.020213 0.951935 0.013676 -2.751780 -5.226466 0.219052 0.000000 0.000000 0.000000 -8.397910 0.125325 -1.645480 5.558164 -1.068775 8.780415 0.383054 -15.073930 -7.766800 0.000000 0.000000 0.000000 4.398083 -1.015082 3.809831 -6.862249 1.016326 -0.392367 0.427972 11.941793 -5.624354 0.000000 0.000000 0.000000 4.537414 -0.109233 -7.014584 -4.963103 4.969158 36.602308 2.036701 0.234640 -31.555803 0.000000 0.000000 0.000000 1.432128 -1.278161 21.095049 0.000000 0.000000 0.000000 17.730711 -5.815627 -1.266592 -16.568886 1.802735 3.763148 8.442699 3.768640 1.794991 0.000000 0.000000 0.000000 -16.588661 4.449344 0.451102 20.353885 -1.184266 9.314098 -2.818451 -0.502147 -3.385298 
0.021873 0.950906 0.018702 -2.807455 -5.379897 -0.125561 0.000000 0.000000 0.000000 -8.544293 0.321929 -1.056086 5.627968 -1.097215 9.044017 0.654198 -15.087272 -8.214022 0.000000 0.000000 0.000000 4.318387 -1.110694 4.337182 -6.929478 1.067036 -0.066950 0.213024 12.094786 -6.087363 0.000000 0.000000 0.000000 4.538870 -0.066641 -7.337833 -4.796042 4.913971 36.736261 1.848615 0.071996 -31.484598 0.000000 0.000000 0.000000 1.704142 -1.457341 21.266316 0.000000 0.000000 0.000000 17.681362 -5.893153 -1.344482 -16.569164 1.758118 3.561238 8.314781 3.627423 1.038478 0.000000 0.000000 0.000000 -16.543831 4.371043 0.513333 20.210067 -1.192477 9.337275 -3.042344 -0.880803 -2.431724 
0.023602 0.949840 0.024264 -2.837732 -5.377613 -0.530588 0.000000 0.000000 0.000000 -8.717370 0.509137 -0.506674 5.702518 -1.140503 9.505506 0.938821 -15.248969 -8.728571 0.000000 0.000000 0.000000 4.273123 -1.223028 4.937461 -7.035979 1.138390 0.362083 -0.136956 12.144087 -6.764151 0.000000 0.000000 0.000000 4.522166 -0.019716 -7.661901 -4.589329 4.821397 36.878843 1.637977 -0.183727 -31.371855 0.000000 0.000000 0.000000 2.109024 -1.727677 21.299040 0.000000 0.000000 0.000000 17.651271 -6.026721 -1.459158 -16.554125 1.737489 3.461183 8.195427 3.519161 0.544548 0.000000 0.000000 0.000000 -16.445703 4.044125 0.740790 20.066213 -1.225212 9.433368 -3.276214 -1.211788 -1.648911 
0.025719 0.948711 0.029931 -2.809175 -5.280035 -0.821611 0.000000 0.000000 0.000000 -8.942568 0.615941 -0.224899 5.705209 -1.191817 10.256010 1.332625 -15.428031 -9.417827 0.000000 0.000000 0.000000 4.152630 -1.297430 5.382195 -7.142368 1.224766 0.897233 -0.531520 12.164628 -7.519212 0.000000 0.000000 0.000000 4.478634 0.025331 -7.946533 -4.419337 4.726654 36.941211 1.451719 -0.433816 -31.277488 0.000000 0.000000 0.000000 2.528133 -2.005001 21.143692 0.000000 0.000000 0.000000 17.622449 -6.165009 -1.573063 -16.578884 1.730735 3.408745 8.085390 3.462523 0.448939 0.000000 0.000000 0.000000 -16.384229 3.622869 1.038213 19.995407 -1.313770 9.707982 -3.521554 -1.467575 -1.153395 
0.028465 0.947583 0.035604 -2.761062 -5.166315 -0.913228 0.000000 0.000000 0.000000 -9.223341 0.626829 -0.256603 5.666128 -1.250032 11.220373 1.805320 -15.516521 -10.199769 0.000000 0.000000 0.000000 3.970305 -1.321102 5.597690 -7.233556 1.313678 1.462203 -0.928571 12.124156 -8.257399 0.000000 0.000000 0.000000 4.507935 0.051444 -8.174514 -4.343774 4.663842 36.869594 1.326955 -0.589964 -31.190702 0.000000 0.000000 0.000000 2.824730 -2.194366 20.817886 0.000000 0.000000 0.000000 17.591070 -6.198395 -1.604538 -16.718411 1.749182 3.424230 7.963354 3.424663 0.544321 0.000000 0.000000 0.000000 -16.425116 3.243195 1.321444 19.974704 -1.443045 10.110127 -3.720131 -1.658003 -0.806977 
0.031844 0.946505 0.041726 -2.722329 -5.099898 -0.845502 0.000000 0.000000 0.000000 -9.571490 0.601064 -0.420244 5.648991 -1.311394 12.191803 2.311443 -15.472365 -10.993644 0.000000 0.000000 0.000000 3.767382 -1.306627 5.626402 -7.336003 1.413684 2.087121 -1.327823 12.015705 -8.971758 0.000000 0.000000 0.000000 4.607667 0.060267 -8.354324 -4.342927 4.636886 36.723429 1.281839 -0.622895 -31.079401 0.000000 0.000000 0.000000 2.998350 -2.293028 20.314014 0.000000 0.000000 0.000000 17.521504 -6.072038 -1.519038 -16.900458 1.805336 3.577977 7.821687 3.379186 0.640216 0.000000 0.000000 0.000000 -16.506369 2.977884 1.527656 19.936416 -1.579459 10.531732 -3.902188 -1.854007 -0.397952 
